HIERARCHY
ROOT hip
{
  OFFSET 0 90.174 2.4664
  CHANNELS 6 Xposition Yposition Zposition Zrotation Xrotation Yrotation
  JOINT abdomen
  {
    OFFSET 0 -1.186 -1.5018
    CHANNELS 6 Xposition Yposition Zposition Zrotation Xrotation Yrotation
    JOINT abdomen2
    {
      OFFSET 0 9.964 0.2134
      CHANNELS 6 Xposition Yposition Zposition Zrotation Xrotation Yrotation
      JOINT chest
      {
        OFFSET 0 13.134 -3.2573
        CHANNELS 6 Xposition Yposition Zposition Zrotation Xrotation Yrotation
        JOINT neck
        {
          OFFSET 0 20.686 -1.6905
          CHANNELS 6 Xposition Yposition Zposition Zrotation Xrotation Yrotation
          JOINT head
          {
            OFFSET 0 7.238 -0.1237
            CHANNELS 6 Xposition Yposition Zposition Zrotation Xrotation Yrotation
            End Site
            {
              OFFSET 0 0 0
            }
          }
        }
        JOINT lCollar
        {
          OFFSET 1.7069 20.075 5.0056
          CHANNELS 6 Xposition Yposition Zposition Zrotation Xrotation Yrotation
          JOINT lShldr
          {
            OFFSET 13.6458 -0.047 -4.849
            CHANNELS 6 Xposition Yposition Zposition Zrotation Xrotation Yrotation
            JOINT lForeArm
            {
              OFFSET 28.3255 -0.9759 2.2888
              CHANNELS 6 Xposition Yposition Zposition Zrotation Xrotation Yrotation
              JOINT lHand
              {
                OFFSET 22.1583 -0.53 10.8316
                CHANNELS 6 Xposition Yposition Zposition Zrotation Xrotation Yrotation
                JOINT lThumb1
                {
                  OFFSET 0.786 0.112 2.5817
                  CHANNELS 6 Xposition Yposition Zposition Zrotation Xrotation Yrotation
                  JOINT lThumb2
                  {
                    OFFSET 0.3601 -0.878 4.2331
                    CHANNELS 6 Xposition Yposition Zposition Zrotation Xrotation Yrotation
                    JOINT lThumb2_End
                    {
                      OFFSET 1.8127 -1.216 2.2227
                      CHANNELS 6 Xposition Yposition Zposition Zrotation Xrotation Yrotation
                      End Site
                      {
                        OFFSET 0.0181 -0.0122 0.0222
                      }
                    }
                  }
                }
                JOINT lCarpal1
                {
                  OFFSET 0.9571 1.114 1.7695
                  CHANNELS 6 Xposition Yposition Zposition Zrotation Xrotation Yrotation
                  JOINT lIndex1
                  {
                    OFFSET 4.1246 0.487 4.1451
                    CHANNELS 6 Xposition Yposition Zposition Zrotation Xrotation Yrotation
                    JOINT lIndex2
                    {
                      OFFSET 3.4052 -1.454 2.7682
                      CHANNELS 6 Xposition Yposition Zposition Zrotation Xrotation Yrotation
                      JOINT lIndex2_End
                      {
                        OFFSET 1.4531 -1.795 1.2713
                        CHANNELS 6 Xposition Yposition Zposition Zrotation Xrotation Yrotation
                        End Site
                        {
                          OFFSET 0.0145 -0.0179 0.0127
                        }
                      }
                    }
                  }
                  JOINT lMid1
                  {
                    OFFSET 5.6954 0.21 2.1184
                    CHANNELS 6 Xposition Yposition Zposition Zrotation Xrotation Yrotation
                    JOINT lMid2
                    {
                      OFFSET 3.9766 -1.54 2.3863
                      CHANNELS 6 Xposition Yposition Zposition Zrotation Xrotation Yrotation
                      JOINT lMid2_End
                      {
                        OFFSET 1.4042 -1.926 1.125
                        CHANNELS 6 Xposition Yposition Zposition Zrotation Xrotation Yrotation
                        End Site
                        {
                          OFFSET 0.014 -0.0193 0.0113
                        }
                      }
                    }
                  }
                }
                JOINT lCarpal2
                {
                  OFFSET 2.0956 0.66 -0.3894
                  CHANNELS 6 Xposition Yposition Zposition Zrotation Xrotation Yrotation
                  JOINT lRing1
                  {
                    OFFSET 5.0395 -0.09 2.4971
                    CHANNELS 6 Xposition Yposition Zposition Zrotation Xrotation Yrotation
                    JOINT lRing2
                    {
                      OFFSET 3.7921 -1.552 1.4806
                      CHANNELS 6 Xposition Yposition Zposition Zrotation Xrotation Yrotation
                      JOINT lRing2_End
                      {
                        OFFSET 1.4655 -1.808 0.9609
                        CHANNELS 6 Xposition Yposition Zposition Zrotation Xrotation Yrotation
                        End Site
                        {
                          OFFSET 0.0147 -0.0181 0.0096
                        }
                      }
                    }
                  }
                  JOINT lPinky1
                  {
                    OFFSET 4.9141 -1.269 0.3591
                    CHANNELS 6 Xposition Yposition Zposition Zrotation Xrotation Yrotation
                    JOINT lPinky2
                    {
                      OFFSET 3.1477 -1.685 0.8462
                      CHANNELS 6 Xposition Yposition Zposition Zrotation Xrotation Yrotation
                      JOINT lPinky2_End
                      {
                        OFFSET 0.8055 -1.585 0.7955
                        CHANNELS 6 Xposition Yposition Zposition Zrotation Xrotation Yrotation
                        End Site
                        {
                          OFFSET 0.0081 -0.0158 0.008
                        }
                      }
                    }
                  }
                }
              }
            }
          }
        }
        JOINT rCollar
        {
          OFFSET -1.7069 20.075 5.0056
          CHANNELS 6 Xposition Yposition Zposition Zrotation Xrotation Yrotation
          JOINT rShldr
          {
            OFFSET -13.6458 -0.047 -4.849
            CHANNELS 6 Xposition Yposition Zposition Zrotation Xrotation Yrotation
            JOINT rForeArm
            {
              OFFSET -28.3255 -0.9759 2.2888
              CHANNELS 6 Xposition Yposition Zposition Zrotation Xrotation Yrotation
              JOINT rHand
              {
                OFFSET -22.1583 -0.53 10.8316
                CHANNELS 6 Xposition Yposition Zposition Zrotation Xrotation Yrotation
                JOINT rThumb1
                {
                  OFFSET -0.786 0.112 2.5817
                  CHANNELS 6 Xposition Yposition Zposition Zrotation Xrotation Yrotation
                  JOINT rThumb2
                  {
                    OFFSET -0.3601 -0.878 4.2331
                    CHANNELS 6 Xposition Yposition Zposition Zrotation Xrotation Yrotation
                    JOINT rThumb2_End
                    {
                      OFFSET -1.8127 -1.216 2.2227
                      CHANNELS 6 Xposition Yposition Zposition Zrotation Xrotation Yrotation
                      End Site
                      {
                        OFFSET -0.0181 -0.0122 0.0222
                      }
                    }
                  }
                }
                JOINT rCarpal1
                {
                  OFFSET -0.9571 1.114 1.7695
                  CHANNELS 6 Xposition Yposition Zposition Zrotation Xrotation Yrotation
                  JOINT rIndex1
                  {
                    OFFSET -4.1246 0.487 4.1451
                    CHANNELS 6 Xposition Yposition Zposition Zrotation Xrotation Yrotation
                    JOINT rIndex2
                    {
                      OFFSET -3.4052 -1.454 2.7682
                      CHANNELS 6 Xposition Yposition Zposition Zrotation Xrotation Yrotation
                      JOINT rIndex2_End
                      {
                        OFFSET -1.4531 -1.795 1.2713
                        CHANNELS 6 Xposition Yposition Zposition Zrotation Xrotation Yrotation
                        End Site
                        {
                          OFFSET -0.0145 -0.018 0.0127
                        }
                      }
                    }
                  }
                  JOINT rMid1
                  {
                    OFFSET -5.6954 0.21 2.1184
                    CHANNELS 6 Xposition Yposition Zposition Zrotation Xrotation Yrotation
                    JOINT rMid2
                    {
                      OFFSET -3.9766 -1.54 2.3863
                      CHANNELS 6 Xposition Yposition Zposition Zrotation Xrotation Yrotation
                      JOINT rMid2_End
                      {
                        OFFSET -1.4042 -1.926 1.125
                        CHANNELS 6 Xposition Yposition Zposition Zrotation Xrotation Yrotation
                        End Site
                        {
                          OFFSET -0.014 -0.0193 0.0113
                        }
                      }
                    }
                  }
                }
                JOINT rCarpal2
                {
                  OFFSET -2.0956 0.66 -0.3894
                  CHANNELS 6 Xposition Yposition Zposition Zrotation Xrotation Yrotation
                  JOINT rRing1
                  {
                    OFFSET -5.0395 -0.09 2.4971
                    CHANNELS 6 Xposition Yposition Zposition Zrotation Xrotation Yrotation
                    JOINT rRing2
                    {
                      OFFSET -3.7921 -1.552 1.4806
                      CHANNELS 6 Xposition Yposition Zposition Zrotation Xrotation Yrotation
                      JOINT rRing2_End
                      {
                        OFFSET -1.4655 -1.808 0.9609
                        CHANNELS 6 Xposition Yposition Zposition Zrotation Xrotation Yrotation
                        End Site
                        {
                          OFFSET -0.0147 -0.0181 0.0096
                        }
                      }
                    }
                  }
                  JOINT rPinky1
                  {
                    OFFSET -4.9141 -1.269 0.3592
                    CHANNELS 6 Xposition Yposition Zposition Zrotation Xrotation Yrotation
                    JOINT rPinky2
                    {
                      OFFSET -3.1477 -1.685 0.8462
                      CHANNELS 6 Xposition Yposition Zposition Zrotation Xrotation Yrotation
                      JOINT rPinky2_End
                      {
                        OFFSET -0.8055 -1.585 0.7955
                        CHANNELS 6 Xposition Yposition Zposition Zrotation Xrotation Yrotation
                        End Site
                        {
                          OFFSET -0.0081 -0.0158 0.008
                        }
                      }
                    }
                  }
                }
              }
            }
          }
        }
      }
    }
  }
  JOINT lThigh
  {
    OFFSET 8.367 -8.2066 0.5982
    CHANNELS 6 Xposition Yposition Zposition Zrotation Xrotation Yrotation
    JOINT lShin
    {
      OFFSET 2.1923 -43.463 -0.4932
      CHANNELS 6 Xposition Yposition Zposition Zrotation Xrotation Yrotation
      JOINT lFoot
      {
        OFFSET 0.7333 -45.8593 -2.6451
        CHANNELS 6 Xposition Yposition Zposition Zrotation Xrotation Yrotation
        End Site
        {
          OFFSET 2.6618 -4.2699 12.3931
        }
      }
    }
  }
  JOINT rThigh
  {
    OFFSET -8.367 -8.2066 0.5982
    CHANNELS 6 Xposition Yposition Zposition Zrotation Xrotation Yrotation
    JOINT rShin
    {
      OFFSET -2.1923 -43.463 -0.4931
      CHANNELS 6 Xposition Yposition Zposition Zrotation Xrotation Yrotation
      JOINT rFoot
      {
        OFFSET -0.7333 -45.8593 -2.6451
        CHANNELS 6 Xposition Yposition Zposition Zrotation Xrotation Yrotation
        End Site
        {
          OFFSET -2.6618 -4.2699 12.3931
        }
      }
    }
  }
}
MOTION
Frames:	4
Frame Time:	0.0333333
42.3108 75.4634 64.3846 180 75.004 -180 7.10543e-015 -1.186 -1.5018 -0.31573 2.66703 -0.883473 0 9.964 0.2134 -0.591167 5.33861 -1.75507 0 13.134 -3.2573 -0.591166 5.33857 -1.75506 7.10543e-015 20.686 -1.6905 -2.06559e-006 -7.76707 -3.53312e-006 7.10543e-015 7.238 -0.1237 2.48023e-007 -14.5782 5.30006e-007 1.7069 20.075 5.0056 -61.2983 42.6545 14.1791 13.6458 -0.047 -4.849 -19.8487 57.9462 -11.7999 28.3255 -0.9759 2.2888 17.6811 -7.831 -27.4901 22.1583 -0.53 10.8316 33.9618 -17.8382 11.4713 0.786 0.112 2.5817 -2.38944e-006 2.27011e-006 7.24946e-007 0.3601 -0.878 4.2331 -1.59028e-015 2.5345e-015 7.95139e-016 1.8127 -1.216 2.2227 -5.85427e-006 1.01572e-006 1.61135e-006 0.9571 1.114 1.7695 -7.95139e-016 -2.16178e-015 5.96354e-016 4.1246 0.487 4.1451 -2.38944e-006 2.27011e-006 7.24946e-007 3.4052 -1.454 2.7682 -7.95139e-016 7.20594e-016 -3.97569e-016 1.4531 -1.795 1.2713 -5.85427e-006 1.01572e-006 1.61135e-006 5.6954 0.21 2.1184 -2.38944e-006 2.27011e-006 7.24946e-007 3.9766 -1.54 2.3863 -7.95139e-016 7.20594e-016 -3.97569e-016 1.4042 -1.926 1.125 -5.85427e-006 1.01572e-006 1.61135e-006 2.0956 0.66 -0.3894 -7.95139e-016 -2.16178e-015 5.96354e-016 5.0395 -0.09 2.4971 -2.38944e-006 2.27011e-006 7.24946e-007 3.7921 -1.552 1.4806 -7.95139e-016 7.20594e-016 -3.97569e-016 1.4655 -1.808 0.9609 -5.85427e-006 1.01572e-006 1.61135e-006 4.9141 -1.269 0.3591 -2.38944e-006 2.27011e-006 7.24946e-007 3.1477 -1.685 0.8462 -7.95139e-016 7.20594e-016 -3.97569e-016 0.8055 -1.585 0.7955 -5.85427e-006 1.01572e-006 1.61135e-006 -1.7069 20.075 5.0056 62.9941 43.0565 -18.4312 -13.6458 -0.047 -4.849 21.4531 58.283 10.496 -28.3255 -0.9759 2.2888 -21.2064 -8.09071 19.3895 -22.1583 -0.53 10.8316 -32.6541 -14.527 -12.7372 -0.786 0.112 2.5817 -2.31832e-006 -2.64859e-007 6.17032e-007 -0.3601 -0.878 4.2331 -3.34505e-006 -1.55645e-006 9.64129e-007 -1.8127 -1.216 2.2227 -5.66337e-006 -1.82131e-006 1.58116e-006 -0.9571 1.114 1.7695 -1.09332e-015 6.33626e-016 -0 -4.1246 0.487 4.1451 -2.31832e-006 -2.64859e-007 6.17032e-007 -3.4052 -1.454 2.7682 -3.34505e-006 -1.55645e-006 9.64129e-007 -1.4531 -1.795 1.2713 -5.66337e-006 -1.82131e-006 1.58116e-006 -5.6954 0.21 2.1184 -2.31832e-006 -2.64859e-007 6.17032e-007 -3.9766 -1.54 2.3863 -3.34505e-006 -1.55645e-006 9.64129e-007 -1.4042 -1.926 1.125 -5.66337e-006 -1.82131e-006 1.58116e-006 -2.0956 0.66 -0.3894 -1.09332e-015 6.33626e-016 -0 -5.0395 -0.09 2.4971 -2.31832e-006 -2.64859e-007 6.17032e-007 -3.7921 -1.552 1.4806 -3.34505e-006 -1.55645e-006 9.64129e-007 -1.4655 -1.808 0.9609 -5.66337e-006 -1.82131e-006 1.58116e-006 -4.9141 -1.269 0.3592 -2.31832e-006 -2.64859e-007 6.17032e-007 -3.1477 -1.685 0.8462 -3.34505e-006 -1.55645e-006 9.64129e-007 -0.8055 -1.585 0.7955 -5.66337e-006 -1.82131e-006 1.58116e-006 8.367 -8.2066 0.5982 170.487 -75.6252 171.102 2.1923 -43.463 -0.4932 -5.6912 0.843502 0.499261 0.7333 -45.8593 -2.6451 7.57453 -1.10356 5.05984 -8.367 -8.2066 0.5982 -172.211 -76.3668 -170.95 -2.1923 -43.463 -0.4931 4.74297 -0.501626 -0.476819 -0.7333 -45.8593 -2.6451 -7.20569 -0.344255 -6.80955 
42.3108 75.4634 64.4352 180 75.004 -180 0 -1.186 -1.5018 -0.318769 2.85791 -0.884 0 9.964 0.2134 -0.594403 5.72037 -1.75533 0 13.134 -3.2573 -0.594403 5.72037 -1.75533 0 20.686 -1.6905 4.5233e-005 -8.55703 1.43063e-005 0 7.238 -0.1237 -8.72694e-007 -15.284 -1.0297e-006 1.7069 20.075 5.0056 -61.1686 42.2247 13.6097 13.6458 -0.047 -4.849 -19.5868 57.8748 -11.9423 28.3255 -0.9759 2.2888 17.5175 -7.61619 -26.7538 22.1583 -0.53 10.8316 34.2444 -18.0741 10.9427 0.786 0.112 2.5817 -2.43843e-006 -1.92786e-006 -9.41949e-006 0.3601 -0.878 4.2331 -5.96289e-006 -8.52483e-007 -8.43247e-006 1.8127 -1.216 2.2227 -4.15436e-006 1.3686e-006 -9.0947e-006 0.9571 1.114 1.7695 -1.59028e-015 -1.59028e-015 3.97569e-016 4.1246 0.487 4.1451 -2.43843e-006 -1.92786e-006 -9.41949e-006 3.4052 -1.454 2.7682 -5.96289e-006 -8.52483e-007 -8.43247e-006 1.4531 -1.795 1.2713 -4.15436e-006 1.3686e-006 -9.0947e-006 5.6954 0.21 2.1184 -2.43843e-006 -1.92786e-006 -9.41949e-006 3.9766 -1.54 2.3863 -5.96289e-006 -8.52483e-007 -8.43247e-006 1.4042 -1.926 1.125 -4.15436e-006 1.3686e-006 -9.0947e-006 2.0956 0.66 -0.3894 -1.59028e-015 -1.59028e-015 3.97569e-016 5.0395 -0.09 2.4971 -2.43843e-006 -1.92786e-006 -9.41949e-006 3.7921 -1.552 1.4806 -5.96289e-006 -8.52483e-007 -8.43247e-006 1.4655 -1.808 0.9609 -4.15436e-006 1.3686e-006 -9.0947e-006 4.9141 -1.269 0.3591 -2.43843e-006 -1.92786e-006 -9.41949e-006 3.1477 -1.685 0.8462 -5.96289e-006 -8.52483e-007 -8.43247e-006 0.8055 -1.585 0.7955 -4.15436e-006 1.3686e-006 -9.0947e-006 -1.7069 20.075 5.0056 62.9607 42.562 -17.7513 -13.6458 -0.047 -4.849 21.1528 58.207 10.6315 -28.3255 -0.9759 2.2888 -20.9147 -7.77281 18.5021 -22.1583 -0.53 10.8316 -33.0202 -14.9448 -12.1657 -0.786 0.112 2.5817 2.31828e-006 2.64878e-007 -6.17188e-007 -0.3601 -0.878 4.2331 2.31828e-006 2.64878e-007 -6.17188e-007 -1.8127 -1.216 2.2227 2.31828e-006 2.64878e-007 -6.17188e-007 -0.9571 1.114 1.7695 -4.96962e-016 -3.41661e-015 -0 -4.1246 0.487 4.1451 2.31828e-006 2.64878e-007 -6.17188e-007 -3.4052 -1.454 2.7682 2.31828e-006 2.64878e-007 -6.17188e-007 -1.4531 -1.795 1.2713 2.31828e-006 2.64878e-007 -6.17188e-007 -5.6954 0.21 2.1184 2.31828e-006 2.64878e-007 -6.17188e-007 -3.9766 -1.54 2.3863 2.31828e-006 2.64878e-007 -6.17188e-007 -1.4042 -1.926 1.125 2.31828e-006 2.64878e-007 -6.17188e-007 -2.0956 0.66 -0.3894 -4.96962e-016 -3.41661e-015 -0 -5.0395 -0.09 2.4971 2.31828e-006 2.64878e-007 -6.17188e-007 -3.7921 -1.552 1.4806 2.31828e-006 2.64878e-007 -6.17188e-007 -1.4655 -1.808 0.9609 2.31828e-006 2.64878e-007 -6.17188e-007 -4.9141 -1.269 0.3592 2.31828e-006 2.64878e-007 -6.17188e-007 -3.1477 -1.685 0.8462 2.31828e-006 2.64878e-007 -6.17188e-007 -0.8055 -1.585 0.7955 2.31828e-006 2.64878e-007 -6.17188e-007 8.367 -8.2066 0.5982 170.487 -75.6252 171.102 2.1923 -43.463 -0.4932 -5.6912 0.843502 0.499261 0.7333 -45.8593 -2.6451 7.57453 -1.10356 5.05984 -8.367 -8.2066 0.5982 -172.211 -76.3668 -170.95 -2.1923 -43.463 -0.4931 4.74297 -0.501626 -0.476819 -0.7333 -45.8593 -2.6451 -7.20569 -0.344255 -6.80955 
42.3108 75.4634 64.4857 180 75.004 -180 0 -1.186 -1.5018 -0.321807 3.04873 -0.884482 7.10543e-015 9.964 0.2134 -0.597643 6.10206 -1.75551 -7.10543e-015 13.134 -3.2573 -0.597643 6.10205 -1.75551 7.10543e-015 20.686 -1.6905 3.40861e-005 -9.34632 -5.65163e-006 -7.10543e-015 7.238 -0.1237 1.6936e-007 -15.99 -3.51844e-007 1.7069 20.075 5.0056 -61.0455 41.7941 13.0455 13.6458 -0.047 -4.849 -19.3258 57.8031 -12.0838 28.3255 -0.9759 2.2888 17.3513 -7.4035 -26.0173 22.1583 -0.53 10.8316 34.5251 -18.3125 10.4147 0.786 0.112 2.5817 -2.32973e-006 -5.96169e-008 6.24613e-007 0.3601 -0.878 4.2331 -1.19467e-006 1.13506e-006 3.62531e-007 1.8127 -1.216 2.2227 -7.95139e-016 3.94588e-014 1.19271e-015 0.9571 1.114 1.7695 -2.4742e-032 7.1314e-015 1.98785e-016 4.1246 0.487 4.1451 -2.32973e-006 -5.96169e-008 6.24613e-007 3.4052 -1.454 2.7682 -1.19467e-006 1.13506e-006 3.62531e-007 1.4531 -1.795 1.2713 -2.0554e-030 4.23163e-014 2.78299e-015 5.6954 0.21 2.1184 -2.32973e-006 -5.96169e-008 6.24613e-007 3.9766 -1.54 2.3863 -1.19467e-006 1.13506e-006 3.62531e-007 1.4042 -1.926 1.125 -2.0554e-030 4.23163e-014 2.78299e-015 2.0956 0.66 -0.3894 -2.4742e-032 7.1314e-015 1.98785e-016 5.0395 -0.09 2.4971 -2.32973e-006 -5.96169e-008 6.24613e-007 3.7921 -1.552 1.4806 -1.19467e-006 1.13506e-006 3.62531e-007 1.4655 -1.808 0.9609 -2.0554e-030 4.23163e-014 2.78299e-015 4.9141 -1.269 0.3591 -2.32973e-006 -5.96169e-008 6.24613e-007 3.1477 -1.685 0.8462 -1.19467e-006 1.13506e-006 3.62531e-007 0.8055 -1.585 0.7955 -2.0554e-030 4.23163e-014 2.78299e-015 -1.7069 20.075 5.0056 62.9356 42.0672 -17.0776 -13.6458 -0.047 -4.849 20.8535 58.1306 10.7659 -28.3255 -0.9759 2.2888 -20.6183 -7.4595 17.6141 -22.1583 -0.53 10.8316 -33.3825 -15.366 -11.596 -0.786 0.112 2.5817 -6.95746e-016 1.0312e-015 -0 -0.3601 -0.878 4.2331 -3.34484e-006 -1.55656e-006 9.64577e-007 -1.8127 -1.216 2.2227 -1.73937e-015 2.70844e-015 -0 -0.9571 1.114 1.7695 9.93923e-017 1.0312e-015 1.59028e-015 -4.1246 0.487 4.1451 -6.4605e-016 1.15544e-015 -1.59028e-015 -3.4052 -1.454 2.7682 -3.34484e-006 -1.55656e-006 9.64577e-007 -1.4531 -1.795 1.2713 -1.73937e-015 2.84511e-015 -0 -5.6954 0.21 2.1184 -6.4605e-016 1.15544e-015 -1.59028e-015 -3.9766 -1.54 2.3863 -3.34484e-006 -1.55656e-006 9.64577e-007 -1.4042 -1.926 1.125 -1.73937e-015 2.84511e-015 -0 -2.0956 0.66 -0.3894 9.93923e-017 1.0312e-015 1.59028e-015 -5.0395 -0.09 2.4971 -6.4605e-016 1.15544e-015 -1.59028e-015 -3.7921 -1.552 1.4806 -3.34484e-006 -1.55656e-006 9.64577e-007 -1.4655 -1.808 0.9609 -1.73937e-015 2.84511e-015 -0 -4.9141 -1.269 0.3592 -6.4605e-016 1.15544e-015 -1.59028e-015 -3.1477 -1.685 0.8462 -3.34484e-006 -1.55656e-006 9.64577e-007 -0.8055 -1.585 0.7955 -1.73937e-015 2.84511e-015 -0 8.367 -8.2066 0.5982 170.487 -75.6252 171.102 2.1923 -43.463 -0.4932 -5.6912 0.843502 0.499261 0.7333 -45.8593 -2.6451 7.57453 -1.10356 5.05984 -8.367 -8.2066 0.5982 -172.211 -76.3668 -170.95 -2.1923 -43.463 -0.4931 4.74297 -0.501626 -0.476819 -0.7333 -45.8593 -2.6451 -7.20569 -0.344255 -6.80955 
42.3108 75.4634 64.5362 180 75.004 -180 0 -1.186 -1.5018 -0.324846 3.23955 -0.88493 0 9.964 0.2134 -0.600894 6.4837 -1.75564 7.10543e-015 13.134 -3.2573 -0.600893 6.48367 -1.75564 -7.10543e-015 20.686 -1.6905 -9.0642e-008 -10.1352 -8.31214e-007 7.10543e-015 7.238 -0.1237 3.38995e-008 -16.696 -5.91047e-007 1.7069 20.075 5.0056 -60.9289 41.3626 12.4863 13.6458 -0.047 -4.849 -19.0656 57.731 -12.2244 28.3255 -0.9759 2.2888 17.1824 -7.19302 -25.2809 22.1583 -0.53 10.8316 34.8037 -18.5532 9.88733 0.786 0.112 2.5817 2.32971e-006 5.95244e-008 -6.24708e-007 0.3601 -0.878 4.2331 2.38923e-006 -2.27018e-006 -7.25148e-007 1.8127 -1.216 2.2227 2.32971e-006 5.95246e-008 -6.24708e-007 0.9571 1.114 1.7695 -7.95139e-016 -1.98785e-016 -3.97569e-016 4.1246 0.487 4.1451 2.32971e-006 5.95244e-008 -6.24707e-007 3.4052 -1.454 2.7682 2.38923e-006 -2.27018e-006 -7.25148e-007 1.4531 -1.795 1.2713 2.32971e-006 5.95246e-008 -6.24708e-007 5.6954 0.21 2.1184 2.32971e-006 5.95244e-008 -6.24707e-007 3.9766 -1.54 2.3863 2.38923e-006 -2.27018e-006 -7.25148e-007 1.4042 -1.926 1.125 2.32971e-006 5.95246e-008 -6.24708e-007 2.0956 0.66 -0.3894 -7.95139e-016 -1.98785e-016 -3.97569e-016 5.0395 -0.09 2.4971 2.32971e-006 5.95244e-008 -6.24707e-007 3.7921 -1.552 1.4806 2.38923e-006 -2.27018e-006 -7.25148e-007 1.4655 -1.808 0.9609 2.32971e-006 5.95246e-008 -6.24708e-007 4.9141 -1.269 0.3591 2.32971e-006 5.95244e-008 -6.24707e-007 3.1477 -1.685 0.8462 2.38923e-006 -2.27018e-006 -7.25148e-007 0.8055 -1.585 0.7955 2.32971e-006 5.95246e-008 -6.24708e-007 -1.7069 20.075 5.0056 62.9184 41.5725 -16.4093 -13.6458 -0.047 -4.849 20.5551 58.0538 10.8994 -28.3255 -0.9759 2.2888 -20.3175 -7.15092 16.7254 -22.1583 -0.53 10.8316 -33.7411 -15.7905 -11.0281 -0.786 0.112 2.5817 2.54062e-006 -1.9007e-006 5.96769e-007 -0.3601 -0.878 4.2331 3.34465e-006 1.55676e-006 -9.64891e-007 -1.8127 -1.216 2.2227 7.45443e-016 2.47487e-014 -1.59028e-015 -0.9571 1.114 1.7695 -6.4605e-016 -1.11816e-016 1.59028e-015 -4.1246 0.487 4.1451 2.54062e-006 -1.9007e-006 5.96769e-007 -3.4052 -1.454 2.7682 3.34465e-006 1.55676e-006 -9.64891e-007 -1.4531 -1.795 1.2713 7.45443e-016 1.81639e-014 -1.59028e-015 -5.6954 0.21 2.1184 2.54062e-006 -1.9007e-006 5.96769e-007 -3.9766 -1.54 2.3863 3.34465e-006 1.55676e-006 -9.64891e-007 -1.4042 -1.926 1.125 7.45443e-016 1.81639e-014 -1.59028e-015 -2.0956 0.66 -0.3894 -6.4605e-016 -1.11816e-016 1.59028e-015 -5.0395 -0.09 2.4971 2.54062e-006 -1.9007e-006 5.96769e-007 -3.7921 -1.552 1.4806 3.34465e-006 1.55676e-006 -9.64891e-007 -1.4655 -1.808 0.9609 7.45443e-016 1.81639e-014 -1.59028e-015 -4.9141 -1.269 0.3592 2.54062e-006 -1.9007e-006 5.96769e-007 -3.1477 -1.685 0.8462 3.34465e-006 1.55676e-006 -9.64891e-007 -0.8055 -1.585 0.7955 7.45443e-016 1.81639e-014 -1.59028e-015 8.367 -8.2066 0.5982 170.487 -75.6252 171.102 2.1923 -43.463 -0.4932 -5.6912 0.843502 0.499264 0.7333 -45.8593 -2.6451 7.57454 -1.10355 5.05984 -8.367 -8.2066 0.5982 -172.211 -76.3668 -170.95 -2.1923 -43.463 -0.4931 4.74297 -0.501626 -0.476819 -0.7333 -45.8593 -2.6451 -7.20569 -0.344255 -6.80955 
